<svg xmlns="http://www.w3.org/2000/svg" xmlns:xlink="http://www.w3.org/1999/xlink" width="95" height="95" viewbox="0 0 95 95">
  <defs>
    <path id="path-1" d="M0 0h87v87H0z"/>
    <path id="path-3" d="M0 0h87v87H0z"/>
    <path id="path-5" d="M0 0h87v87H0z"/>
    <path id="path-7" d="M.677.677h389.566v551H.677z"/>
    <path id="path-9" d="M.677.677h389.566v551H.677z"/>
    <path id="path-11" d="M.677.677h389.566v551H.677z"/>
    <path id="path-13" d="M.677.677h389.566v551H.677z"/>
    <path id="path-15" d="M.677.677h389.566v551H.677z"/>
    <path id="path-17" d="M.677.677h389.566v551H.677z"/>
    <path id="path-19" d="M.677.677h389.566v551H.677z"/>
    <path id="path-21" d="M.677.677h389.566v551H.677z"/>
    <path id="path-23" d="M.677.677h389.566v551H.677z"/>
    <path id="path-25" d="M.677.677h389.566v551H.677z"/>
    <path id="path-27" d="M.677.677h389.566v551H.677z"/>
    <path id="path-29" d="M.677.677h389.566v551H.677z"/>
    <path id="path-31" d="M.677.677h389.566v551H.677z"/>
    <path id="path-33" d="M.677.677h389.566v551H.677z"/>
    <path id="path-35" d="M.677.677h389.566v551H.677z"/>
    <path id="path-37" d="M.677.677h389.566v551H.677z"/>
    <path id="path-39" d="M.677.677h389.566v551H.677z"/>
    <path id="path-41" d="M.677.677h389.566v551H.677z"/>
    <path id="path-43" d="M.677.677h389.566v551H.677z"/>
    <path id="path-45" d="M.677.677h389.566v551H.677z"/>
    <path id="path-47" d="M.677.677h389.566v551H.677z"/>
    <path id="path-49" d="M.677.677h389.566v551H.677z"/>
    <path id="path-51" d="M.677.677h389.566v551H.677z"/>
    <path id="path-53" d="M.677.677h389.566v551H.677z"/>
    <path id="path-55" d="M.677.677h389.566v551H.677z"/>
    <path id="path-57" d="M.677.677h389.566v551H.677z"/>
    <path id="path-59" d="M.677.677h389.566v551H.677z"/>
    <path id="path-61" d="M.677.677h389.566v551H.677z"/>
    <path id="path-63" d="M.677.677h389.566v551H.677z"/>
    <path id="path-65" d="M.677.677h389.566v551H.677z"/>
    <path id="path-67" d="M.677.677h389.566v551H.677z"/>
    <path id="path-69" d="M.677.677h389.566v551H.677z"/>
    <path id="path-71" d="M.677.677h389.566v551H.677z"/>
    <path id="path-73" d="M.677.677h389.566v551H.677z"/>
    <path id="path-75" d="M.677.677h389.566v551H.677z"/>
    <path id="path-77" d="M.677.677h389.566v551H.677z"/>
    <path id="path-79" d="M.677.677h389.566v551H.677z"/>
    <path id="path-81" d="M.677.677h389.566v551H.677z"/>
    <path id="path-83" d="M.677.677h389.566v551H.677z"/>
    <path id="path-85" d="M.677.677h389.566v551H.677z"/>
    <path id="path-87" d="M.677.677h389.566v551H.677z"/>
    <path id="path-89" d="M.677.677h389.566v551H.677z"/>
    <path id="path-91" d="M.677.677h389.566v551H.677z"/>
    <path id="path-93" d="M.677.677h389.566v551H.677z"/>
    <path id="path-95" d="M.677.677h389.566v551H.677z"/>
    <path id="path-97" d="M.677.677h389.566v551H.677z"/>
    <path id="path-99" d="M.677.677h389.566v551H.677z"/>
    <path id="path-101" d="M.677.677h389.566v551H.677z"/>
    <path id="path-103" d="M.677.677h389.566v551H.677z"/>
    <path id="path-105" d="M.677.677h389.566v551H.677z"/>
    <path id="path-107" d="M.677.677h389.566v551H.677z"/>
    <path id="path-109" d="M.677.677h389.566v551H.677z"/>
    <path id="path-111" d="M.677.677h389.566v551H.677z"/>
    <path id="path-113" d="M.677.677h389.566v551H.677z"/>
    <path id="path-115" d="M.677.677h389.566v551H.677z"/>
    <path id="path-117" d="M.677.677h389.566v551H.677z"/>
    <path id="path-119" d="M.677.677h389.566v551H.677z"/>
    <path id="path-121" d="M.677.677h389.566v551H.677z"/>
  </defs>
  <g id="HP" fill="none" fill-rule="evenodd">
    <g id="HP-connecte-1" transform="translate(-63 -79)">
      <g id="HEADER-GRAND" transform="translate(-2 -2)">
        <g id="LOGO" transform="translate(65 81)">
          <g id="Group-10">
            <path id="Rectangle-3" fill="#FFF" d="M10 0h85v85c0 5.523-4.477 10-10 10H0V10C0 4.477 4.477 0 10 0z"/>
            <g id="logo-mdp" transform="translate(4 4)">
              <mask id="mask-2" fill="#fff">
                <use xlink:href="#path-1"/>
              </mask>
              <g id="Clipped" mask="url(#mask-2)">
                <mask id="mask-4" fill="#fff">
                  <use xlink:href="#path-3"/>
                </mask>
                <g mask="url(#mask-4)">
                  <mask id="mask-6" fill="#fff">
                    <use xlink:href="#path-5"/>
                  </mask>
                  <g id="Group" mask="url(#mask-6)">
                    <g id="Clipped">
                      <g transform="translate(-152.733 -233.933)">
                        <mask id="mask-8" fill="#fff">
                          <use xlink:href="#path-7"/>
                        </mask>
                        <path id="Shape" fill="#0076BE" fill-rule="nonzero" d="M162.787 233.933c-7.057 0-10.054 4.35-10.054 10.537v53.65c6.09-2.417 13.824-4.543 22.137-4.543 18.367 0 23.007 10.053 41.857 10.053 8.7 0 16.723-1.837 22.91-3.867v-65.83h-76.85z" mask="url(#mask-8)"/>
                      </g>
                      <g transform="translate(-152.733 -233.933)">
                        <mask id="mask-10" fill="#fff">
                          <use xlink:href="#path-9"/>
                        </mask>
                        <path id="Shape" fill="#6AC025" fill-rule="nonzero" d="M171.873 295.993c-7.443 0-14.016 1.644-19.14 3.48v21.46h75.594c5.993 0 11.406-1.836 11.406-11.6v-7.346c-6.67 2.416-15.37 4.736-24.456 4.736-18.947 0-25.037-10.73-43.404-10.73" mask="url(#mask-10)"/>
                      </g>
                      <g transform="translate(-152.733 -233.933)">
                        <mask id="mask-12" fill="#fff">
                          <use xlink:href="#path-11"/>
                        </mask>
                        <path id="Shape" fill="#FFF" fill-rule="nonzero" d="M171.293 256.36h-1.45l.87-4.737c.194-.966.387-2.126.58-2.996l-1.16 2.32-2.223 4.156h-1.353l-.484-4.06c-.096-.676-.096-1.643-.193-2.32-.193.967-.387 2.03-.677 2.997l-1.16 4.64h-1.256l2.61-9.957h1.546l.484 4.64c.096.774.096 1.837.193 2.514.387-.87.87-1.74 1.257-2.514l2.416-4.64h1.74l-1.74 9.957z" mask="url(#mask-12)"/>
                      </g>
                      <g transform="translate(-152.733 -233.933)">
                        <mask id="mask-14" fill="#fff">
                          <use xlink:href="#path-13"/>
                        </mask>
                        <path id="Shape" stroke="#FFF" stroke-width=".283" d="M171.293 256.36h-1.45l.87-4.737c.194-.966.387-2.126.58-2.996l-1.16 2.32-2.223 4.156h-1.353l-.484-4.06c-.096-.676-.096-1.643-.193-2.32-.193.967-.387 2.03-.677 2.997l-1.16 4.64h-1.256l2.61-9.957h1.546l.484 4.64c.096.774.096 1.837.193 2.514.387-.87.87-1.74 1.257-2.514l2.416-4.64h1.74l-1.74 9.957z" mask="url(#mask-14)"/>
                      </g>
                      <g transform="translate(-152.733 -233.933)">
                        <mask id="mask-16" fill="#fff">
                          <use xlink:href="#path-15"/>
                        </mask>
                        <path id="Shape" fill="#FFF" fill-rule="nonzero" d="M179.51 254.523c0 .194-.097.29-.097.484 0 .29.194.483.484.483.193 0 .29 0 .483-.097l-.29.967c-.193.097-.483.097-.677.097-.676 0-1.256-.29-1.256-1.064-.58.58-1.257 1.16-2.127 1.16-.87 0-1.74-.58-1.74-1.643 0-.387.097-.677.097-.967l.966-4.736h1.257l-.967 4.64c0 .193-.096.483-.096.773 0 .677.386.87.87.87.676 0 1.45-.677 1.836-1.16l1.064-5.123h1.256l-1.063 5.316z" mask="url(#mask-16)"/>
                      </g>
                      <g transform="translate(-152.733 -233.933)">
                        <mask id="mask-18" fill="#fff">
                          <use xlink:href="#path-17"/>
                        </mask>
                        <path id="Shape" stroke="#FFF" stroke-width=".283" d="M179.51 254.523c0 .194-.097.29-.097.484 0 .29.194.483.484.483.193 0 .29 0 .483-.097l-.29.967c-.193.097-.483.097-.677.097-.676 0-1.256-.29-1.256-1.064-.58.58-1.257 1.16-2.127 1.16-.87 0-1.74-.58-1.74-1.643 0-.387.097-.677.097-.967l.966-4.736h1.257l-.967 4.64c0 .193-.096.483-.096.773 0 .677.386.87.87.87.676 0 1.45-.677 1.836-1.16l1.064-5.123h1.256l-1.063 5.316z" mask="url(#mask-18)"/>
                      </g>
                      <g transform="translate(-152.733 -233.933)">
                        <mask id="mask-20" fill="#fff">
                          <use xlink:href="#path-19"/>
                        </mask>
                        <path id="Shape" fill="#FFF" fill-rule="nonzero" d="M186.373 250.27h-1.933l-.773 3.48c-.097.29-.097.677-.097.967 0 .58.29.87.87.87.29 0 .677-.097.967-.29l-.194 1.063c-.29.193-.773.29-1.16.29-1.16 0-1.74-.677-1.74-1.74 0-.387.097-.677.097-1.063l.773-3.48h-.966l.29-.967h.87l.386-1.837 1.354-.483-.484 2.223h1.934l-.194.967z" mask="url(#mask-20)"/>
                      </g>
                      <g transform="translate(-152.733 -233.933)">
                        <mask id="mask-22" fill="#fff">
                          <use xlink:href="#path-21"/>
                        </mask>
                        <path id="Shape" stroke="#FFF" stroke-width=".283" d="M186.373 250.27h-1.933l-.773 3.48c-.097.29-.097.677-.097.967 0 .58.29.87.87.87.29 0 .677-.097.967-.29l-.194 1.063c-.29.193-.773.29-1.16.29-1.16 0-1.74-.677-1.74-1.74 0-.387.097-.677.097-1.063l.773-3.48h-.966l.29-.967h.87l.386-1.837 1.354-.483-.484 2.223h1.934l-.194.967z" mask="url(#mask-22)"/>
                      </g>
                      <g transform="translate(-152.733 -233.933)">
                        <mask id="mask-24" fill="#fff">
                          <use xlink:href="#path-23"/>
                        </mask>
                        <path id="Shape" fill="#FFF" fill-rule="nonzero" d="M192.753 254.523c0 .194-.096.29-.096.484 0 .29.193.483.483.483.193 0 .29 0 .483-.097l-.29.967c-.193.097-.483.097-.676.097-.677 0-1.257-.29-1.257-1.064-.58.58-1.257 1.16-2.127 1.16-.87 0-1.74-.58-1.74-1.643 0-.387.097-.677.097-.967l.967-4.736h1.256l-.966 4.64c0 .193-.097.483-.097.773 0 .677.387.87.87.87.677 0 1.45-.677 1.837-1.16l1.063-5.123h1.257l-1.064 5.316z" mask="url(#mask-24)"/>
                      </g>
                      <g transform="translate(-152.733 -233.933)">
                        <mask id="mask-26" fill="#fff">
                          <use xlink:href="#path-25"/>
                        </mask>
                        <path id="Shape" stroke="#FFF" stroke-width=".283" d="M192.753 254.523c0 .194-.096.29-.096.484 0 .29.193.483.483.483.193 0 .29 0 .483-.097l-.29.967c-.193.097-.483.097-.676.097-.677 0-1.257-.29-1.257-1.064-.58.58-1.257 1.16-2.127 1.16-.87 0-1.74-.58-1.74-1.643 0-.387.097-.677.097-.967l.967-4.736h1.256l-.966 4.64c0 .193-.097.483-.097.773 0 .677.387.87.87.87.677 0 1.45-.677 1.837-1.16l1.063-5.123h1.257l-1.064 5.316z" mask="url(#mask-26)"/>
                      </g>
                      <g transform="translate(-152.733 -233.933)">
                        <mask id="mask-28" fill="#fff">
                          <use xlink:href="#path-27"/>
                        </mask>
                        <path id="Shape" fill="#FFF" fill-rule="nonzero" d="M200.97 251.817a11.185 11.185 0 0 1-4.35 1.16v.676c0 1.16.58 1.837 1.74 1.837.677 0 1.353-.193 1.837-.677l-.194 1.16c-.58.387-1.353.58-2.03.58-1.643 0-2.706-.966-2.706-2.706 0-2.127 1.256-4.93 3.77-4.93 1.16 0 2.03.773 2.03 1.933.096.29 0 .677-.097.967m-2.223-1.934c-1.064 0-1.74 1.16-2.03 2.224 1.063-.097 2.03-.387 2.996-.774 0-.096.097-.29.097-.386 0-.58-.387-1.064-1.063-1.064" mask="url(#mask-28)"/>
                      </g>
                      <g transform="translate(-152.733 -233.933)">
                        <mask id="mask-30" fill="#fff">
                          <use xlink:href="#path-29"/>
                        </mask>
                        <path id="Shape" stroke="#FFF" stroke-width=".283" d="M200.97 251.817a11.185 11.185 0 0 1-4.35 1.16v.676c0 1.16.58 1.837 1.74 1.837.677 0 1.353-.193 1.837-.677l-.194 1.16c-.58.387-1.353.58-2.03.58-1.643 0-2.706-.966-2.706-2.706 0-2.127 1.256-4.93 3.77-4.93 1.16 0 2.03.773 2.03 1.933.096.29 0 .677-.097.967zm-2.223-1.934c-1.064 0-1.74 1.16-2.03 2.224 1.063-.097 2.03-.387 2.996-.774 0-.096.097-.29.097-.386 0-.58-.387-1.064-1.063-1.064z" mask="url(#mask-30)"/>
                      </g>
                      <g transform="translate(-152.733 -233.933)">
                        <mask id="mask-32" fill="#fff">
                          <use xlink:href="#path-31"/>
                        </mask>
                        <path id="Shape" fill="#FFF" fill-rule="nonzero" d="M204.063 254.523c0 .194-.096.29-.096.484 0 .29.193.483.483.483.193 0 .29 0 .483-.097l-.29.967c-.193.097-.483.097-.676.097-.774 0-1.257-.29-1.257-1.064 0-.29.097-.58.097-.966l1.836-8.604 1.354-.29-1.934 8.99z" mask="url(#mask-32)"/>
                      </g>
                      <g transform="translate(-152.733 -233.933)">
                        <mask id="mask-34" fill="#fff">
                          <use xlink:href="#path-33"/>
                        </mask>
                        <path id="Shape" stroke="#FFF" stroke-width=".283" d="M204.063 254.523c0 .194-.096.29-.096.484 0 .29.193.483.483.483.193 0 .29 0 .483-.097l-.29.967c-.193.097-.483.097-.676.097-.774 0-1.257-.29-1.257-1.064 0-.29.097-.58.097-.966l1.836-8.604 1.354-.29-1.934 8.99z" mask="url(#mask-34)"/>
                      </g>
                      <g transform="translate(-152.733 -233.933)">
                        <mask id="mask-36" fill="#fff">
                          <use xlink:href="#path-35"/>
                        </mask>
                        <path id="Shape" fill="#FFF" fill-rule="nonzero" d="M208.123 254.523c0 .194-.096.29-.096.484 0 .29.193.483.483.483.193 0 .29 0 .483-.097l-.29.967c-.193.097-.483.097-.676.097-.774 0-1.257-.29-1.257-1.064 0-.29.097-.58.097-.966l1.836-8.604 1.354-.29-1.934 8.99z" mask="url(#mask-36)"/>
                      </g>
                      <g transform="translate(-152.733 -233.933)">
                        <mask id="mask-38" fill="#fff">
                          <use xlink:href="#path-37"/>
                        </mask>
                        <path id="Shape" stroke="#FFF" stroke-width=".283" d="M208.123 254.523c0 .194-.096.29-.096.484 0 .29.193.483.483.483.193 0 .29 0 .483-.097l-.29.967c-.193.097-.483.097-.676.097-.774 0-1.257-.29-1.257-1.064 0-.29.097-.58.097-.966l1.836-8.604 1.354-.29-1.934 8.99z" mask="url(#mask-38)"/>
                      </g>
                      <g transform="translate(-152.733 -233.933)">
                        <mask id="mask-40" fill="#fff">
                          <use xlink:href="#path-39"/>
                        </mask>
                        <path id="Shape" fill="#FFF" fill-rule="nonzero" d="M216.34 251.817a11.185 11.185 0 0 1-4.35 1.16v.676c0 1.16.58 1.837 1.74 1.837.677 0 1.353-.193 1.837-.677l-.194 1.16c-.58.387-1.353.58-2.03.58-1.643 0-2.706-.966-2.706-2.706 0-2.127 1.256-4.93 3.77-4.93 1.16 0 2.03.773 2.03 1.933.193.29.096.677-.097.967m-2.127-1.934c-1.063 0-1.74 1.16-2.03 2.224 1.064-.097 2.03-.387 2.997-.774 0-.096.097-.29.097-.386 0-.58-.387-1.064-1.064-1.064" mask="url(#mask-40)"/>
                      </g>
                      <g transform="translate(-152.733 -233.933)">
                        <mask id="mask-42" fill="#fff">
                          <use xlink:href="#path-41"/>
                        </mask>
                        <path id="Shape" stroke="#FFF" stroke-width=".283" d="M216.34 251.817a11.185 11.185 0 0 1-4.35 1.16v.676c0 1.16.58 1.837 1.74 1.837.677 0 1.353-.193 1.837-.677l-.194 1.16c-.58.387-1.353.58-2.03.58-1.643 0-2.706-.966-2.706-2.706 0-2.127 1.256-4.93 3.77-4.93 1.16 0 2.03.773 2.03 1.933.193.29.096.677-.097.967zm-2.127-1.934c-1.063 0-1.74 1.16-2.03 2.224 1.064-.097 2.03-.387 2.997-.774 0-.096.097-.29.097-.386 0-.58-.387-1.064-1.064-1.064z" mask="url(#mask-42)"/>
                      </g>
                      <g transform="translate(-152.733 -233.933)">
                        <mask id="mask-44" fill="#fff">
                          <use xlink:href="#path-43"/>
                        </mask>
                        <path id="Shape" fill="#FFF" fill-rule="nonzero" d="M168.2 270.183c0 .097-.097.29-.097.387 0 .193.097.483.194.677l-1.257.483c-.097-.29-.193-.58-.193-.87v-.29c-.774.773-1.354 1.16-2.03 1.16-1.547 0-1.74-1.643-1.74-2.513 0-2.514 1.353-5.027 4.06-5.027.386 0 .773 0 1.063.097l.677-3.19 1.353-.29-2.03 9.376zm-1.257-5.026c-1.933 0-2.61 2.223-2.61 3.866 0 .774.194 1.644.967 1.644.677 0 1.353-.677 1.74-1.16l.87-4.157c-.193-.097-.58-.193-.967-.193z" mask="url(#mask-44)"/>
                      </g>
                      <g transform="translate(-152.733 -233.933)">
                        <mask id="mask-46" fill="#fff">
                          <use xlink:href="#path-45"/>
                        </mask>
                        <path id="Shape" stroke="#FFF" stroke-width=".283" d="M168.2 270.183c0 .097-.097.29-.097.387 0 .193.097.483.194.677l-1.257.483c-.097-.29-.193-.58-.193-.87v-.29c-.774.773-1.354 1.16-2.03 1.16-1.547 0-1.74-1.643-1.74-2.513 0-2.514 1.353-5.027 4.06-5.027.386 0 .773 0 1.063.097l.677-3.19 1.353-.29-2.03 9.376zm-1.257-5.026c-1.933 0-2.61 2.223-2.61 3.866 0 .774.194 1.644.967 1.644.677 0 1.353-.677 1.74-1.16l.87-4.157c-.193-.097-.58-.193-.967-.193z" mask="url(#mask-46)"/>
                      </g>
                      <g transform="translate(-152.733 -233.933)">
                        <mask id="mask-48" fill="#fff">
                          <use xlink:href="#path-47"/>
                        </mask>
                        <path id="Shape" fill="#FFF" fill-rule="nonzero" d="M176.417 266.993a11.185 11.185 0 0 1-4.35 1.16v.677c0 1.16.58 1.837 1.74 1.837.676 0 1.353-.194 1.836-.677l-.193 1.16c-.58.387-1.353.58-2.03.58-1.643 0-2.707-1.063-2.707-2.707 0-2.126 1.257-4.93 3.77-4.93 1.16 0 2.03.774 2.03 1.934.097.386.097.676-.096.966m-2.127-1.933c-1.063 0-1.74 1.16-2.03 2.223 1.063-.096 2.03-.386 2.997-.773 0-.097.096-.29.096-.387 0-.58-.483-1.063-1.063-1.063" mask="url(#mask-48)"/>
                      </g>
                      <g transform="translate(-152.733 -233.933)">
                        <mask id="mask-50" fill="#fff">
                          <use xlink:href="#path-49"/>
                        </mask>
                        <path id="Shape" stroke="#FFF" stroke-width=".283" d="M176.417 266.993a11.185 11.185 0 0 1-4.35 1.16v.677c0 1.16.58 1.837 1.74 1.837.676 0 1.353-.194 1.836-.677l-.193 1.16c-.58.387-1.353.58-2.03.58-1.643 0-2.707-1.063-2.707-2.707 0-2.126 1.257-4.93 3.77-4.93 1.16 0 2.03.774 2.03 1.934.097.386.097.676-.096.966zm-2.127-1.933c-1.063 0-1.74 1.16-2.03 2.223 1.063-.096 2.03-.386 2.997-.773 0-.097.096-.29.096-.387 0-.58-.483-1.063-1.063-1.063z" mask="url(#mask-50)"/>
                      </g>
                      <g transform="translate(-152.733 -233.933)">
                        <mask id="mask-52" fill="#fff">
                          <use xlink:href="#path-51"/>
                        </mask>
                        <path id="Shape" fill="#FFF" fill-rule="nonzero" d="M183.473 267.573h-1.16l-.87 3.964h-1.353l2.127-9.86c.773-.097 1.546-.194 2.223-.194 1.643 0 3.19.774 3.19 2.61-.097 2.32-2.03 3.48-4.157 3.48m.774-5.026c-.29 0-.58 0-.87.096l-.774 3.867c.387 0 .774.097 1.064.097 1.45 0 2.513-.87 2.513-2.32-.097-1.16-.87-1.74-1.933-1.74" mask="url(#mask-52)"/>
                      </g>
                      <g transform="translate(-152.733 -233.933)">
                        <mask id="mask-54" fill="#fff">
                          <use xlink:href="#path-53"/>
                        </mask>
                        <path id="Shape" stroke="#FFF" stroke-width=".283" d="M183.473 267.573h-1.16l-.87 3.964h-1.353l2.127-9.86c.773-.097 1.546-.194 2.223-.194 1.643 0 3.19.774 3.19 2.61-.097 2.32-2.03 3.48-4.157 3.48zm.774-5.026c-.29 0-.58 0-.87.096l-.774 3.867c.387 0 .774.097 1.064.097 1.45 0 2.513-.87 2.513-2.32-.097-1.16-.87-1.74-1.933-1.74z" mask="url(#mask-54)"/>
                      </g>
                      <g transform="translate(-152.733 -233.933)">
                        <mask id="mask-56" fill="#fff">
                          <use xlink:href="#path-55"/>
                        </mask>
                        <path id="Shape" fill="#FFF" fill-rule="nonzero" d="M190.433 271.827c-1.643 0-2.416-1.16-2.416-2.707 0-2.223 1.256-5.027 3.77-5.027 1.643 0 2.416 1.16 2.416 2.707 0 2.223-1.256 5.027-3.77 5.027m1.16-6.767c-1.836 0-2.223 2.707-2.223 4.06 0 .773.29 1.643 1.257 1.643 1.836 0 2.223-2.706 2.223-4.06 0-.773-.29-1.643-1.257-1.643" mask="url(#mask-56)"/>
                      </g>
                      <g transform="translate(-152.733 -233.933)">
                        <mask id="mask-58" fill="#fff">
                          <use xlink:href="#path-57"/>
                        </mask>
                        <path id="Shape" stroke="#FFF" stroke-width=".283" d="M190.433 271.827c-1.643 0-2.416-1.16-2.416-2.707 0-2.223 1.256-5.027 3.77-5.027 1.643 0 2.416 1.16 2.416 2.707 0 2.223-1.256 5.027-3.77 5.027zm1.16-6.767c-1.836 0-2.223 2.707-2.223 4.06 0 .773.29 1.643 1.257 1.643 1.836 0 2.223-2.706 2.223-4.06 0-.773-.29-1.643-1.257-1.643z" mask="url(#mask-58)"/>
                      </g>
                      <g transform="translate(-152.733 -233.933)">
                        <mask id="mask-60" fill="#fff">
                          <use xlink:href="#path-59"/>
                        </mask>
                        <path id="Shape" fill="#FFF" fill-rule="nonzero" d="M197.103 269.797c0 .193-.096.29-.096.483 0 .29.193.483.483.483.193 0 .29 0 .483-.096l-.29.966h-.58c-.773 0-1.256-.29-1.256-1.063 0-.29.096-.58.096-.967l1.16-5.22h1.257l-1.257 5.414zm1.064-7.347a.66.66 0 0 1-.677-.677c0-.58.29-1.063.967-1.063a.66.66 0 0 1 .676.677c0 .58-.386 1.063-.966 1.063z" mask="url(#mask-60)"/>
                      </g>
                      <g transform="translate(-152.733 -233.933)">
                        <mask id="mask-62" fill="#fff">
                          <use xlink:href="#path-61"/>
                        </mask>
                        <path id="Shape" stroke="#FFF" stroke-width=".283" d="M197.103 269.797c0 .193-.096.29-.096.483 0 .29.193.483.483.483.193 0 .29 0 .483-.096l-.29.966h-.58c-.773 0-1.256-.29-1.256-1.063 0-.29.096-.58.096-.967l1.16-5.22h1.257l-1.257 5.414zm1.064-7.347a.66.66 0 0 1-.677-.677c0-.58.29-1.063.967-1.063a.66.66 0 0 1 .676.677c0 .58-.386 1.063-.966 1.063z" mask="url(#mask-62)"/>
                      </g>
                      <g transform="translate(-152.733 -233.933)">
                        <mask id="mask-64" fill="#fff">
                          <use xlink:href="#path-63"/>
                        </mask>
                        <path id="Shape" fill="#FFF" fill-rule="nonzero" d="M204.063 265.447h-1.933l-.773 3.48c-.097.29-.097.676-.097.966 0 .58.29.87.87.87.29 0 .677-.096.967-.29l-.194 1.064c-.386.193-.773.29-1.16.29-1.16 0-1.74-.677-1.74-1.74 0-.387.097-.677.097-1.064l.773-3.48h-.966l.29-.966h.87l.386-1.837 1.354-.483-.484 2.32h1.934l-.194.87z" mask="url(#mask-64)"/>
                      </g>
                      <g transform="translate(-152.733 -233.933)">
                        <mask id="mask-66" fill="#fff">
                          <use xlink:href="#path-65"/>
                        </mask>
                        <path id="Shape" stroke="#FFF" stroke-width=".283" d="M204.063 265.447h-1.933l-.773 3.48c-.097.29-.097.676-.097.966 0 .58.29.87.87.87.29 0 .677-.096.967-.29l-.194 1.064c-.386.193-.773.29-1.16.29-1.16 0-1.74-.677-1.74-1.74 0-.387.097-.677.097-1.064l.773-3.48h-.966l.29-.966h.87l.386-1.837 1.354-.483-.484 2.32h1.934l-.194.87z" mask="url(#mask-66)"/>
                      </g>
                      <g transform="translate(-152.733 -233.933)">
                        <mask id="mask-68" fill="#fff">
                          <use xlink:href="#path-67"/>
                        </mask>
                        <path id="Shape" fill="#FFF" fill-rule="nonzero" d="M206.577 269.797c0 .193-.097.29-.097.483 0 .29.193.483.483.483.194 0 .29 0 .484-.096l-.29.966h-.677c-.773 0-1.257-.29-1.257-1.063 0-.29.097-.58.097-.967l1.16-5.22h1.257l-1.16 5.414zm.966-7.347a.66.66 0 0 1-.676-.677c0-.58.29-1.063.966-1.063a.66.66 0 0 1 .677.677c0 .58-.29 1.063-.967 1.063z" mask="url(#mask-68)"/>
                      </g>
                      <g transform="translate(-152.733 -233.933)">
                        <mask id="mask-70" fill="#fff">
                          <use xlink:href="#path-69"/>
                        </mask>
                        <path id="Shape" stroke="#FFF" stroke-width=".283" d="M206.577 269.797c0 .193-.097.29-.097.483 0 .29.193.483.483.483.194 0 .29 0 .484-.096l-.29.966h-.677c-.773 0-1.257-.29-1.257-1.063 0-.29.097-.58.097-.967l1.16-5.22h1.257l-1.16 5.414zm.966-7.347a.66.66 0 0 1-.676-.677c0-.58.29-1.063.966-1.063a.66.66 0 0 1 .677.677c0 .58-.29 1.063-.967 1.063z" mask="url(#mask-70)"/>
                      </g>
                      <g transform="translate(-152.733 -233.933)">
                        <mask id="mask-72" fill="#fff">
                          <use xlink:href="#path-71"/>
                        </mask>
                        <path id="Shape" fill="#FFF" fill-rule="nonzero" d="M214.793 266.993a11.185 11.185 0 0 1-4.35 1.16v.677c0 1.16.58 1.837 1.74 1.837.677 0 1.354-.194 1.837-.677l-.193 1.16c-.58.387-1.354.58-2.03.58-1.74 0-2.707-1.063-2.707-2.707 0-2.126 1.257-4.93 3.77-4.93 1.16 0 2.03.774 2.03 1.934.193.386.097.676-.097.966m-2.126-1.933c-1.064 0-1.74 1.16-2.03 2.223 1.063-.096 2.03-.386 2.996-.773 0-.097.097-.29.097-.387 0-.58-.387-1.063-1.063-1.063" mask="url(#mask-72)"/>
                      </g>
                      <g transform="translate(-152.733 -233.933)">
                        <mask id="mask-74" fill="#fff">
                          <use xlink:href="#path-73"/>
                        </mask>
                        <path id="Shape" stroke="#FFF" stroke-width=".283" d="M214.793 266.993a11.185 11.185 0 0 1-4.35 1.16v.677c0 1.16.58 1.837 1.74 1.837.677 0 1.354-.194 1.837-.677l-.193 1.16c-.58.387-1.354.58-2.03.58-1.74 0-2.707-1.063-2.707-2.707 0-2.126 1.257-4.93 3.77-4.93 1.16 0 2.03.774 2.03 1.934.193.386.097.676-.097.966zm-2.126-1.933c-1.064 0-1.74 1.16-2.03 2.223 1.063-.096 2.03-.386 2.996-.773 0-.097.097-.29.097-.387 0-.58-.387-1.063-1.063-1.063z" mask="url(#mask-74)"/>
                      </g>
                      <g transform="translate(-152.733 -233.933)">
                        <mask id="mask-76" fill="#fff">
                          <use xlink:href="#path-75"/>
                        </mask>
                        <path id="Shape" fill="#FFF" fill-rule="nonzero" d="M220.883 265.543c-.193-.096-.386-.096-.58-.096-.58 0-1.16.483-1.643.966l-1.063 5.124h-1.257l1.257-5.8c0-.097.096-.29.096-.387 0-.193-.096-.483-.193-.677l1.257-.483c.096.29.193.58.193.87v.29c.58-.58 1.063-1.16 1.933-1.16a.73.73 0 0 1 .387.097l-.387 1.256z" mask="url(#mask-76)"/>
                      </g>
                      <g transform="translate(-152.733 -233.933)">
                        <mask id="mask-78" fill="#fff">
                          <use xlink:href="#path-77"/>
                        </mask>
                        <path id="Shape" stroke="#FFF" stroke-width=".283" d="M220.883 265.543c-.193-.096-.386-.096-.58-.096-.58 0-1.16.483-1.643.966l-1.063 5.124h-1.257l1.257-5.8c0-.097.096-.29.096-.387 0-.193-.096-.483-.193-.677l1.257-.483c.096.29.193.58.193.87v.29c.58-.58 1.063-1.16 1.933-1.16a.73.73 0 0 1 .387.097l-.387 1.256z" mask="url(#mask-78)"/>
                      </g>
                      <g transform="translate(-152.733 -233.933)">
                        <mask id="mask-80" fill="#fff">
                          <use xlink:href="#path-79"/>
                        </mask>
                        <path id="Shape" fill="#FFF" fill-rule="nonzero" d="M226.103 265.447a2.728 2.728 0 0 0-1.45-.387c-.676 0-1.256.387-1.256 1.063 0 1.064 2.223 1.547 2.223 3.287 0 1.547-1.257 2.32-2.707 2.32-.676 0-1.256-.097-1.836-.387l.193-1.063c.483.29 1.063.483 1.643.483.677 0 1.45-.29 1.45-1.16 0-1.256-2.223-1.546-2.223-3.286 0-1.45 1.257-2.224 2.61-2.224.58 0 1.16.097 1.643.387l-.29.967z" mask="url(#mask-80)"/>
                      </g>
                      <g transform="translate(-152.733 -233.933)">
                        <mask id="mask-82" fill="#fff">
                          <use xlink:href="#path-81"/>
                        </mask>
                        <path id="Shape" stroke="#FFF" stroke-width=".283" d="M226.103 265.447a2.728 2.728 0 0 0-1.45-.387c-.676 0-1.256.387-1.256 1.063 0 1.064 2.223 1.547 2.223 3.287 0 1.547-1.257 2.32-2.707 2.32-.676 0-1.256-.097-1.836-.387l.193-1.063c.483.29 1.063.483 1.643.483.677 0 1.45-.29 1.45-1.16 0-1.256-2.223-1.546-2.223-3.286 0-1.45 1.257-2.224 2.61-2.224.58 0 1.16.097 1.643.387l-.29.967z" mask="url(#mask-82)"/>
                      </g>
                      <g transform="translate(-152.733 -233.933)">
                        <mask id="mask-84" fill="#fff">
                          <use xlink:href="#path-83"/>
                        </mask>
                        <path id="Shape" fill="#FFF" fill-rule="nonzero" d="M168.683 285.94v-2.9h-3.286c-.484.87-.967 1.933-1.354 2.9h-1.45a80.745 80.745 0 0 1 5.124-9.957h1.45c.58 3.287.87 6.574.966 9.957h-1.45zm-.483-8.313a58.88 58.88 0 0 0-2.223 4.253h2.706c-.193-1.353-.29-2.803-.483-4.253z" mask="url(#mask-84)"/>
                      </g>
                      <g transform="translate(-152.733 -233.933)">
                        <mask id="mask-86" fill="#fff">
                          <use xlink:href="#path-85"/>
                        </mask>
                        <path id="Shape" stroke="#FFF" stroke-width=".283" d="M168.683 285.94v-2.9h-3.286c-.484.87-.967 1.933-1.354 2.9h-1.45a80.745 80.745 0 0 1 5.124-9.957h1.45c.58 3.287.87 6.574.966 9.957h-1.45zm-.483-8.313a58.88 58.88 0 0 0-2.223 4.253h2.706c-.193-1.353-.29-2.803-.483-4.253z" mask="url(#mask-86)"/>
                      </g>
                      <g transform="translate(-152.733 -233.933)">
                        <mask id="mask-88" fill="#fff">
                          <use xlink:href="#path-87"/>
                        </mask>
                        <path id="Shape" fill="#FFF" fill-rule="nonzero" d="M176.61 279.85a2.728 2.728 0 0 0-1.45-.387c-.677 0-1.257.387-1.257 1.064 0 1.16 2.224 1.546 2.224 3.286 0 1.547-1.257 2.32-2.707 2.32-.677 0-1.257-.096-1.837-.386l.194-1.064c.483.29 1.063.484 1.643.484.677 0 1.45-.29 1.45-1.16 0-1.257-2.223-1.547-2.223-3.287 0-1.45 1.256-2.223 2.61-2.223.58 0 1.16.096 1.643.386l-.29.967z" mask="url(#mask-88)"/>
                      </g>
                      <g transform="translate(-152.733 -233.933)">
                        <mask id="mask-90" fill="#fff">
                          <use xlink:href="#path-89"/>
                        </mask>
                        <path id="Shape" stroke="#FFF" stroke-width=".283" d="M176.61 279.85a2.728 2.728 0 0 0-1.45-.387c-.677 0-1.257.387-1.257 1.064 0 1.16 2.224 1.546 2.224 3.286 0 1.547-1.257 2.32-2.707 2.32-.677 0-1.257-.096-1.837-.386l.194-1.064c.483.29 1.063.484 1.643.484.677 0 1.45-.29 1.45-1.16 0-1.257-2.223-1.547-2.223-3.287 0-1.45 1.256-2.223 2.61-2.223.58 0 1.16.096 1.643.386l-.29.967z" mask="url(#mask-90)"/>
                      </g>
                      <g transform="translate(-152.733 -233.933)">
                        <mask id="mask-92" fill="#fff">
                          <use xlink:href="#path-91"/>
                        </mask>
                        <path id="Shape" fill="#FFF" fill-rule="nonzero" d="M182.507 279.85a2.728 2.728 0 0 0-1.45-.387c-.677 0-1.257.387-1.257 1.064 0 1.16 2.223 1.546 2.223 3.286 0 1.547-1.256 2.32-2.706 2.32-.677 0-1.257-.096-1.837-.386l.193-1.064c.484.29 1.064.484 1.644.484.676 0 1.45-.29 1.45-1.16 0-1.257-2.224-1.547-2.224-3.287 0-1.45 1.257-2.223 2.61-2.223.58 0 1.16.096 1.644.386l-.29.967z" mask="url(#mask-92)"/>
                      </g>
                      <g transform="translate(-152.733 -233.933)">
                        <mask id="mask-94" fill="#fff">
                          <use xlink:href="#path-93"/>
                        </mask>
                        <path id="Shape" stroke="#FFF" stroke-width=".283" d="M182.507 279.85a2.728 2.728 0 0 0-1.45-.387c-.677 0-1.257.387-1.257 1.064 0 1.16 2.223 1.546 2.223 3.286 0 1.547-1.256 2.32-2.706 2.32-.677 0-1.257-.096-1.837-.386l.193-1.064c.484.29 1.064.484 1.644.484.676 0 1.45-.29 1.45-1.16 0-1.257-2.224-1.547-2.224-3.287 0-1.45 1.257-2.223 2.61-2.223.58 0 1.16.096 1.644.386l-.29.967z" mask="url(#mask-94)"/>
                      </g>
                      <g transform="translate(-152.733 -233.933)">
                        <mask id="mask-96" fill="#fff">
                          <use xlink:href="#path-95"/>
                        </mask>
                        <path id="Shape" fill="#FFF" fill-rule="nonzero" d="M189.273 284.103c0 .194-.096.29-.096.484 0 .29.193.483.483.483.193 0 .29 0 .483-.097l-.29.967c-.193.097-.483.097-.676.097-.677 0-1.257-.29-1.257-1.064-.58.58-1.257 1.16-2.127 1.16-.87 0-1.74-.58-1.74-1.643 0-.29.097-.677.097-.967l.967-4.736h1.256l-.966 4.64c0 .193-.097.483-.097.773 0 .677.387.87.87.87.677 0 1.45-.677 1.837-1.16l1.063-5.123h1.353l-1.16 5.316z" mask="url(#mask-96)"/>
                      </g>
                      <g transform="translate(-152.733 -233.933)">
                        <mask id="mask-98" fill="#fff">
                          <use xlink:href="#path-97"/>
                        </mask>
                        <path id="Shape" stroke="#FFF" stroke-width=".283" d="M189.273 284.103c0 .194-.096.29-.096.484 0 .29.193.483.483.483.193 0 .29 0 .483-.097l-.29.967c-.193.097-.483.097-.676.097-.677 0-1.257-.29-1.257-1.064-.58.58-1.257 1.16-2.127 1.16-.87 0-1.74-.58-1.74-1.643 0-.29.097-.677.097-.967l.967-4.736h1.256l-.966 4.64c0 .193-.097.483-.097.773 0 .677.387.87.87.87.677 0 1.45-.677 1.837-1.16l1.063-5.123h1.353l-1.16 5.316z" mask="url(#mask-98)"/>
                      </g>
                      <g transform="translate(-152.733 -233.933)">
                        <mask id="mask-100" fill="#fff">
                          <use xlink:href="#path-99"/>
                        </mask>
                        <path id="Shape" fill="#FFF" fill-rule="nonzero" d="M196.233 279.947c-.193-.097-.386-.097-.58-.097-.58 0-1.16.483-1.643.967l-1.063 5.123h-1.257l1.257-5.8c0-.097.096-.29.096-.387 0-.193-.096-.483-.193-.676l1.257-.484c.096.29.193.58.193.87v.29c.58-.58 1.063-1.16 1.933-1.16a.73.73 0 0 1 .387.097l-.387 1.257z" mask="url(#mask-100)"/>
                      </g>
                      <g transform="translate(-152.733 -233.933)">
                        <mask id="mask-102" fill="#fff">
                          <use xlink:href="#path-101"/>
                        </mask>
                        <path id="Shape" stroke="#FFF" stroke-width=".283" d="M196.233 279.947c-.193-.097-.386-.097-.58-.097-.58 0-1.16.483-1.643.967l-1.063 5.123h-1.257l1.257-5.8c0-.097.096-.29.096-.387 0-.193-.096-.483-.193-.676l1.257-.484c.096.29.193.58.193.87v.29c.58-.58 1.063-1.16 1.933-1.16a.73.73 0 0 1 .387.097l-.387 1.257z" mask="url(#mask-102)"/>
                      </g>
                      <g transform="translate(-152.733 -233.933)">
                        <mask id="mask-104" fill="#fff">
                          <use xlink:href="#path-103"/>
                        </mask>
                        <path id="Shape" fill="#FFF" fill-rule="nonzero" d="M201.84 284.103c0 .194-.097.29-.097.484 0 .29.194.483.484.483.193 0 .29 0 .483-.097l-.29.967c-.193.097-.483.097-.677.097-.676 0-1.256-.29-1.256-1.064-.58.58-1.16 1.16-2.03 1.16-1.547 0-1.74-1.643-1.74-2.513 0-2.513 1.353-5.027 4.156-5.027.58 0 1.547.097 2.127.387l-1.16 5.123zm-1.353-4.543c-1.934 0-2.514 2.223-2.514 3.867 0 .773.194 1.643.967 1.643.677 0 1.257-.677 1.74-1.16l.87-4.157c-.387-.193-.773-.193-1.063-.193z" mask="url(#mask-104)"/>
                      </g>
                      <g transform="translate(-152.733 -233.933)">
                        <mask id="mask-106" fill="#fff">
                          <use xlink:href="#path-105"/>
                        </mask>
                        <path id="Shape" stroke="#FFF" stroke-width=".283" d="M201.84 284.103c0 .194-.097.29-.097.484 0 .29.194.483.484.483.193 0 .29 0 .483-.097l-.29.967c-.193.097-.483.097-.677.097-.676 0-1.256-.29-1.256-1.064-.58.58-1.16 1.16-2.03 1.16-1.547 0-1.74-1.643-1.74-2.513 0-2.513 1.353-5.027 4.156-5.027.58 0 1.547.097 2.127.387l-1.16 5.123zm-1.353-4.543c-1.934 0-2.514 2.223-2.514 3.867 0 .773.194 1.643.967 1.643.677 0 1.257-.677 1.74-1.16l.87-4.157c-.387-.193-.773-.193-1.063-.193z" mask="url(#mask-106)"/>
                      </g>
                      <g transform="translate(-152.733 -233.933)">
                        <mask id="mask-108" fill="#fff">
                          <use xlink:href="#path-107"/>
                        </mask>
                        <path id="Shape" fill="#FFF" fill-rule="nonzero" d="M210.637 281.203l-.967 4.737h-1.257l.967-4.64c0-.193.097-.483.097-.773 0-.677-.387-.87-.87-.87-.677 0-1.45.676-1.934 1.16l-1.063 5.123h-1.257l1.257-5.8c0-.097.097-.29.097-.387 0-.193-.097-.483-.194-.676l1.257-.484c.097.29.193.58.193.87v.29c.58-.58 1.257-1.16 2.127-1.16.87 0 1.74.58 1.74 1.644-.097.386-.193.676-.193.966" mask="url(#mask-108)"/>
                      </g>
                      <g transform="translate(-152.733 -233.933)">
                        <mask id="mask-110" fill="#fff">
                          <use xlink:href="#path-109"/>
                        </mask>
                        <path id="Shape" stroke="#FFF" stroke-width=".283" d="M210.637 281.203l-.967 4.737h-1.257l.967-4.64c0-.193.097-.483.097-.773 0-.677-.387-.87-.87-.87-.677 0-1.45.676-1.934 1.16l-1.063 5.123h-1.257l1.257-5.8c0-.097.097-.29.097-.387 0-.193-.097-.483-.194-.676l1.257-.484c.097.29.193.58.193.87v.29c.58-.58 1.257-1.16 2.127-1.16.87 0 1.74.58 1.74 1.644-.097.386-.193.676-.193.966z" mask="url(#mask-110)"/>
                      </g>
                      <g transform="translate(-152.733 -233.933)">
                        <mask id="mask-112" fill="#fff">
                          <use xlink:href="#path-111"/>
                        </mask>
                        <path id="Shape" fill="#FFF" fill-rule="nonzero" d="M216.727 280.72c0-.677-.097-1.257-.967-1.257-1.547 0-2.03 2.61-2.03 3.867 0 1.063.483 1.74 1.547 1.74.58 0 1.063-.193 1.45-.483l-.194 1.063c-.483.29-1.063.483-1.643.483-1.837 0-2.513-1.256-2.513-2.803s.966-4.833 3.77-4.833c1.16 0 1.74.58 1.74 1.74l-1.16.483z" mask="url(#mask-112)"/>
                      </g>
                      <g transform="translate(-152.733 -233.933)">
                        <mask id="mask-114" fill="#fff">
                          <use xlink:href="#path-113"/>
                        </mask>
                        <path id="Shape" stroke="#FFF" stroke-width=".283" d="M216.727 280.72c0-.677-.097-1.257-.967-1.257-1.547 0-2.03 2.61-2.03 3.867 0 1.063.483 1.74 1.547 1.74.58 0 1.063-.193 1.45-.483l-.194 1.063c-.483.29-1.063.483-1.643.483-1.837 0-2.513-1.256-2.513-2.803s.966-4.833 3.77-4.833c1.16 0 1.74.58 1.74 1.74l-1.16.483z" mask="url(#mask-114)"/>
                      </g>
                      <g transform="translate(-152.733 -233.933)">
                        <mask id="mask-116" fill="#fff">
                          <use xlink:href="#path-115"/>
                        </mask>
                        <path id="Shape" fill="#FFF" fill-rule="nonzero" d="M224.267 281.397a11.185 11.185 0 0 1-4.35 1.16v.676c0 1.16.58 1.837 1.74 1.837.676 0 1.353-.193 1.836-.677l-.193 1.16c-.58.387-1.353.58-2.03.58-1.643 0-2.707-1.063-2.707-2.706 0-2.127 1.257-4.93 3.77-4.93 1.16 0 2.03.773 2.03 1.933.097.387.097.677-.096.967m-2.127-1.934c-1.063 0-1.74 1.16-2.03 2.224 1.063-.097 2.03-.387 2.997-.774 0-.096.096-.29.096-.386 0-.58-.483-1.064-1.063-1.064" mask="url(#mask-116)"/>
                      </g>
                      <g transform="translate(-152.733 -233.933)">
                        <mask id="mask-118" fill="#fff">
                          <use xlink:href="#path-117"/>
                        </mask>
                        <path id="Shape" stroke="#FFF" stroke-width=".283" d="M224.267 281.397a11.185 11.185 0 0 1-4.35 1.16v.676c0 1.16.58 1.837 1.74 1.837.676 0 1.353-.193 1.836-.677l-.193 1.16c-.58.387-1.353.58-2.03.58-1.643 0-2.707-1.063-2.707-2.706 0-2.127 1.257-4.93 3.77-4.93 1.16 0 2.03.773 2.03 1.933.097.387.097.677-.096.967zm-2.127-1.934c-1.063 0-1.74 1.16-2.03 2.224 1.063-.097 2.03-.387 2.997-.774 0-.096.096-.29.096-.386 0-.58-.483-1.064-1.063-1.064z" mask="url(#mask-118)"/>
                      </g>
                      <g transform="translate(-152.733 -233.933)">
                        <mask id="mask-120" fill="#fff">
                          <use xlink:href="#path-119"/>
                        </mask>
                        <path id="Shape" fill="#FFF" fill-rule="nonzero" d="M230.453 279.85a2.728 2.728 0 0 0-1.45-.387c-.676 0-1.256.387-1.256 1.064 0 1.16 2.223 1.546 2.223 3.286 0 1.547-1.257 2.32-2.707 2.32-.676 0-1.256-.096-1.836-.386l.193-1.064c.483.29 1.063.484 1.643.484.677 0 1.45-.29 1.45-1.16 0-1.257-2.223-1.547-2.223-3.287 0-1.45 1.257-2.223 2.61-2.223.58 0 1.16.096 1.643.386l-.29.967z" mask="url(#mask-120)"/>
                      </g>
                      <g transform="translate(-152.733 -233.933)">
                        <mask id="mask-122" fill="#fff">
                          <use xlink:href="#path-121"/>
                        </mask>
                        <path id="Shape" stroke="#FFF" stroke-width=".283" d="M230.453 279.85a2.728 2.728 0 0 0-1.45-.387c-.676 0-1.256.387-1.256 1.064 0 1.16 2.223 1.546 2.223 3.286 0 1.547-1.257 2.32-2.707 2.32-.676 0-1.256-.096-1.836-.386l.193-1.064c.483.29 1.063.484 1.643.484.677 0 1.45-.29 1.45-1.16 0-1.257-2.223-1.547-2.223-3.287 0-1.45 1.257-2.223 2.61-2.223.58 0 1.16.096 1.643.386l-.29.967z" mask="url(#mask-122)"/>
                      </g>
                    </g>
                  </g>
                </g>
              </g>
            </g>
          </g>
        </g>
      </g>
    </g>
  </g>
</svg>
